<svg xmlns="http://www.w3.org/2000/svg" viewBox="0 0 64 64" role="img" aria-labelledby="migo-favicon-title migo-favicon-desc" data-optical-size="48"><title id="migo-favicon-title">Migo rice dog favicon</title><desc id="migo-favicon-desc">An optically enlarged fold-ear rice dog favicon gazing toward its play nose.</desc><g transform="translate(32 33.6) scale(1.16) translate(-33.3 -32.25)"><path data-part="upright-ear" fill="#14171c" d="M18 24 9.5 8.5c-1-1.9 1.2-3.7 3-2.4l14.2 10.8Z"/><path data-part="folded-ear" fill="#14171c" d="M43.2 17.8c4.8-7.8 12.7-9.8 16.2-4.5 3.7 5.6.5 15.6-5.1 19.2-2.8 1.8-6.5.8-8.1-2.2l-4.9-9c-.6-1.1-.5-2.4.1-3.5Z"/><path data-part="rice-head" fill="#14171c" d="M32 13.2c14.7 0 24.8 11.6 24.8 26 0 13.3-9.1 19.3-24.8 19.3S7.2 52.5 7.2 39.2c0-14.4 10.1-26 24.8-26Z"/><circle data-part="left-eye" fill="#f4f6f7" cx="22.4" cy="35" r="4.2"/><circle data-part="right-eye" fill="#f4f6f7" cx="42.1" cy="35" r="4.2"/><path data-part="play-nose" transform="translate(34.5 47.5) scale(0.78) translate(-34.5 -47.5)" fill="#e5352c" d="m30 41.4 9 5.2a1.8 1.8 0 0 1 0 3.1l-9 5.2c-1.2.7-2.7-.1-2.7-1.5V42.9c0-1.4 1.5-2.2 2.7-1.5Z"/><path data-part="smile-eye" fill="none" stroke="#14171c" stroke-width="2.0" stroke-linecap="round" d="M19.29 36.26 Q22.40 39.79 25.51 36.26"/><path data-part="smile-eye" fill="none" stroke="#14171c" stroke-width="2.0" stroke-linecap="round" d="M38.99 36.26 Q42.10 39.79 45.21 36.26"/></g></svg>
